<svg xmlns="http://www.w3.org/2000/svg" viewBox="0 0 512 512">
  <defs>
    <linearGradient id="bg" x1="0%" y1="0%" x2="100%" y2="100%">
      <stop offset="0%" stop-color="#15172c"/>
      <stop offset="100%" stop-color="#090912"/>
    </linearGradient>
    <linearGradient id="accent" x1="0%" y1="0%" x2="100%" y2="100%">
      <stop offset="0%" stop-color="#ff6b6b"/>
      <stop offset="35%" stop-color="#ffd93d"/>
      <stop offset="68%" stop-color="#6bcb77"/>
      <stop offset="100%" stop-color="#4d96ff"/>
    </linearGradient>
  </defs>
  <rect width="512" height="512" fill="url(#bg)"/>
  <rect x="96" y="96" width="320" height="320" rx="72" fill="#17172a" stroke="rgba(255,255,255,0.08)"/>
  <g fill="#252543">
    <rect x="132" y="132" width="76" height="76" rx="22"/>
    <rect x="218" y="132" width="76" height="76" rx="22"/>
    <rect x="304" y="132" width="76" height="76" rx="22"/>
    <rect x="132" y="218" width="76" height="76" rx="22"/>
    <rect x="218" y="218" width="76" height="76" rx="22"/>
    <rect x="304" y="218" width="76" height="76" rx="22"/>
    <rect x="132" y="304" width="76" height="76" rx="22"/>
    <rect x="218" y="304" width="76" height="76" rx="22"/>
    <rect x="304" y="304" width="76" height="76" rx="22"/>
  </g>
  <path d="M155 338c35-4 52 11 76 8 33-4 43-39 87-87" fill="none" stroke="url(#accent)" stroke-linecap="round" stroke-linejoin="round" stroke-width="20"/>
  <g fill="#eef2ff" font-family="Segoe UI, Arial, sans-serif" font-size="50" font-weight="800" text-anchor="middle">
    <text x="170" y="185">B</text>
    <text x="256" y="271">Ö</text>
    <text x="342" y="357">Z</text>
  </g>
</svg>
