<svg xmlns="http://www.w3.org/2000/svg" viewBox="0 0 512 512">
  <defs>
    <linearGradient id="bg" x1="0%" y1="0%" x2="100%" y2="100%">
      <stop offset="0%" stop-color="#1a1a30"/>
      <stop offset="100%" stop-color="#0e0e1a"/>
    </linearGradient>
    <linearGradient id="accent" x1="0%" y1="0%" x2="100%" y2="100%">
      <stop offset="0%" stop-color="#ff6b6b"/>
      <stop offset="35%" stop-color="#ffd93d"/>
      <stop offset="68%" stop-color="#6bcb77"/>
      <stop offset="100%" stop-color="#4d96ff"/>
    </linearGradient>
  </defs>
  <rect width="512" height="512" rx="112" fill="url(#bg)"/>
  <rect x="84" y="84" width="344" height="344" rx="84" fill="#17172a" stroke="rgba(255,255,255,0.08)"/>
  <g fill="#252543">
    <rect x="122" y="122" width="86" height="86" rx="24"/>
    <rect x="213" y="122" width="86" height="86" rx="24"/>
    <rect x="304" y="122" width="86" height="86" rx="24"/>
    <rect x="122" y="213" width="86" height="86" rx="24"/>
    <rect x="213" y="213" width="86" height="86" rx="24"/>
    <rect x="304" y="213" width="86" height="86" rx="24"/>
    <rect x="122" y="304" width="86" height="86" rx="24"/>
    <rect x="213" y="304" width="86" height="86" rx="24"/>
    <rect x="304" y="304" width="86" height="86" rx="24"/>
  </g>
  <path d="M154 355c39-5 55 10 83 7 36-4 43-47 88-95" fill="none" stroke="url(#accent)" stroke-linecap="round" stroke-linejoin="round" stroke-width="22"/>
  <g fill="#eef2ff" font-family="Segoe UI, Arial, sans-serif" font-size="56" font-weight="800" text-anchor="middle">
    <text x="165" y="182">B</text>
    <text x="256" y="273">Ö</text>
    <text x="347" y="364">Z</text>
  </g>
</svg>
